<svg width="159" height="159" viewBox="0 0 159 159" fill="none" xmlns="http://www.w3.org/2000/svg">
<circle cx="79.5" cy="79.5" r="79.5" fill="#9E7200"/>
<path d="M46.4674 64.825H42.6674C42.1924 61.775 39.8924 60.025 36.8924 60.025C33.4424 60.025 31.0674 62.3 31.0674 66.25C31.0674 70.225 33.4424 72.475 36.8924 72.475C39.9424 72.475 42.2424 70.65 42.6674 67.525H46.4674C45.8924 72.425 41.9924 75.375 36.8174 75.375C31.1424 75.375 27.1674 71.975 27.1674 66.25C27.1674 60.55 31.1674 57.125 36.8424 57.125C41.9674 57.125 45.8924 60 46.4674 64.825ZM57.3805 75.375C51.6055 75.375 47.4555 71.975 47.4555 66.25C47.4555 60.525 51.6055 57.125 57.3805 57.125C63.1305 57.125 67.2555 60.525 67.2555 66.25C67.2555 71.975 63.1305 75.375 57.3805 75.375ZM57.3805 72.475C60.9055 72.475 63.3555 70.175 63.3555 66.25C63.3555 62.325 60.9055 60.025 57.3805 60.025C53.8305 60.025 51.3555 62.325 51.3555 66.25C51.3555 70.175 53.8305 72.475 57.3805 72.475ZM68.5818 75V57.5H72.9568L77.7068 63.9L82.4068 70.3L82.3568 57.5H85.7318V75H81.3568L76.6068 68.625L71.9068 62.275L71.9568 68.625L71.9818 75H68.5818ZM94.2801 75V60.375H86.9051V57.5H105.48V60.375H98.0801V75H94.2801ZM106.595 75V57.5H122.095V60.375H110.395V64.65H119.095V67.45H110.395V72.175H122.095V75H106.595ZM122.608 67.2V64.6H131.533V67.2H122.608ZM12.0877 100V82.5H17.6127L20.1127 89.075L22.5377 95.65L24.9877 89.075L27.4627 82.5H32.9877V100H29.3627L29.3877 91.325L29.4377 86.15L27.5377 91.325L24.3377 100H20.6127L17.4127 91.325L15.5127 86.1L15.5627 91.325L15.5877 100H12.0877ZM34.6463 100V82.5H45.2463C49.3213 82.5 51.8463 84.55 51.8463 87.975C51.8463 91.35 49.3213 93.425 45.2963 93.425H38.4463V100H34.6463ZM44.9713 85.35H38.4463V90.625H44.9713C46.9463 90.625 48.0713 89.725 48.0713 88C48.0713 86.3 46.9463 85.35 44.9713 85.35ZM62.6295 100.375C56.8545 100.375 52.7045 96.975 52.7045 91.25C52.7045 85.525 56.8545 82.125 62.6295 82.125C68.3795 82.125 72.5045 85.525 72.5045 91.25C72.5045 96.975 68.3795 100.375 62.6295 100.375ZM62.6295 97.475C66.1545 97.475 68.6045 95.175 68.6045 91.25C68.6045 87.325 66.1545 85.025 62.6295 85.025C59.0795 85.025 56.6045 87.325 56.6045 91.25C56.6045 95.175 59.0795 97.475 62.6295 97.475ZM73.8309 100V82.5H77.6309V97.15H89.1309V100H73.8309ZM89.6039 100L97.7289 82.5H102.104L110.254 100H106.004L104.279 96.05H95.3039L93.5789 100H89.6039ZM96.7039 92.875L96.5039 93.35H103.079L102.879 92.875L99.8039 85.7L96.7039 92.875ZM110.916 100V82.5H121.941C125.791 82.5 128.166 84.3 128.166 87.375C128.166 89.375 127.141 90.9 125.316 91.625C126.916 92.1 127.541 93.225 127.616 95.025C127.691 97.175 127.841 98.8 128.391 100H124.466C124.016 99.05 123.941 97.775 123.866 95.175C123.841 93.6 123.116 93.025 121.491 93.025H114.716V100H110.916ZM121.616 85.35H114.716V90.225H121.616C123.341 90.225 124.416 89.35 124.416 87.775C124.416 86.2 123.341 85.35 121.616 85.35ZM135.795 100V93.7L127.395 82.5H131.92L137.795 90.425L143.645 82.5H147.97L139.57 93.725V100H135.795Z" fill="white"/>
</svg>
