<svg width="159" height="159" viewBox="0 0 159 159" fill="none" xmlns="http://www.w3.org/2000/svg">
<circle cx="79.5" cy="79.5" r="79.5" fill="#EBBA3B"/>
<path d="M21.8777 88V70.5H27.4027L29.9027 77.075L32.3277 83.65L34.7777 77.075L37.2527 70.5H42.7777V88H39.1527L39.1777 79.325L39.2277 74.15L37.3277 79.325L34.1277 88H30.4027L27.2027 79.325L25.3027 74.1L25.3527 79.325L25.3777 88H21.8777ZM54.0113 88.375C48.2363 88.375 44.0863 84.975 44.0863 79.25C44.0863 73.525 48.2363 70.125 54.0113 70.125C59.7613 70.125 63.8863 73.525 63.8863 79.25C63.8863 84.975 59.7613 88.375 54.0113 88.375ZM54.0113 85.475C57.5363 85.475 59.9863 83.175 59.9863 79.25C59.9863 75.325 57.5363 73.025 54.0113 73.025C50.4613 73.025 47.9863 75.325 47.9863 79.25C47.9863 83.175 50.4613 85.475 54.0113 85.475ZM65.2127 88V70.5H73.3127C79.2127 70.5 83.1877 73.75 83.1877 79.275C83.1877 84.725 79.1627 88 73.2877 88H65.2127ZM73.1627 73.4H69.0127V85.15H73.1627C76.9877 85.15 79.2877 83.125 79.2877 79.3C79.2877 75.425 76.9877 73.4 73.1627 73.4ZM84.5242 88V70.5H100.024V73.375H88.3242V77.65H97.0242V80.45H88.3242V85.175H100.024V88H84.5242ZM101.346 88V70.5H112.371C116.221 70.5 118.596 72.3 118.596 75.375C118.596 77.375 117.571 78.9 115.746 79.625C117.346 80.1 117.971 81.225 118.046 83.025C118.121 85.175 118.271 86.8 118.821 88H114.896C114.446 87.05 114.371 85.775 114.296 83.175C114.271 81.6 113.546 81.025 111.921 81.025H105.146V88H101.346ZM112.046 73.35H105.146V78.225H112.046C113.771 78.225 114.846 77.35 114.846 75.775C114.846 74.2 113.771 73.35 112.046 73.35ZM119.949 88V70.5H124.324L129.074 76.9L133.774 83.3L133.724 70.5H137.099V88H132.724L127.974 81.625L123.274 75.275L123.324 81.625L123.349 88H119.949Z" fill="#232323"/>
</svg>
