<svg width="159" height="159" viewBox="0 0 159 159" fill="none" xmlns="http://www.w3.org/2000/svg">
<circle cx="79.5" cy="79.5" r="79.5" fill="#EBBA3B"/>
<path d="M16.0184 88V70.5H20.3934L25.1434 76.9L29.8434 83.3L29.7934 70.5H33.1684V88H28.7934L24.0434 81.625L19.3434 75.275L19.3934 81.625L19.4184 88H16.0184ZM33.8666 88L41.9916 70.5H46.3666L54.5166 88H50.2666L48.5416 84.05H39.5666L37.8416 88H33.8666ZM40.9666 80.875L40.7666 81.35H47.3416L47.1416 80.875L44.0666 73.7L40.9666 80.875ZM57.6102 88V73.375H50.2352V70.5H68.8102V73.375H61.4102V88H57.6102ZM78.649 88.35C73.374 88.35 69.874 85.525 69.874 80.675V70.5H73.674V80.75C73.674 83.725 75.774 85.375 78.699 85.375C81.649 85.375 83.774 83.725 83.774 80.775V70.5H87.474V80.7C87.474 85.55 83.924 88.35 78.649 88.35ZM89.0408 88V70.5H100.066C103.916 70.5 106.291 72.3 106.291 75.375C106.291 77.375 105.266 78.9 103.441 79.625C105.041 80.1 105.666 81.225 105.741 83.025C105.816 85.175 105.966 86.8 106.516 88H102.591C102.141 87.05 102.066 85.775 101.991 83.175C101.966 81.6 101.241 81.025 99.6158 81.025H92.8408V88H89.0408ZM99.7408 73.35H92.8408V78.225H99.7408C101.466 78.225 102.541 77.35 102.541 75.775C102.541 74.2 101.466 73.35 99.7408 73.35ZM106.767 88L114.892 70.5H119.267L127.417 88H123.167L121.442 84.05H112.467L110.742 88H106.767ZM113.867 80.875L113.667 81.35H120.242L120.042 80.875L116.967 73.7L113.867 80.875ZM128.079 88V70.5H131.879V85.15H143.379V88H128.079Z" fill="#232323"/>
</svg>
