<svg width="159" height="159" viewBox="0 0 159 159" fill="none" xmlns="http://www.w3.org/2000/svg">
<circle cx="79.5" cy="79.5" r="79.5" fill="#9E7200"/>
<path d="M23.8802 88V70.5H34.9052C38.7552 70.5 41.1302 72.3 41.1302 75.375C41.1302 77.375 40.1052 78.9 38.2802 79.625C39.8802 80.1 40.5052 81.225 40.5802 83.025C40.6552 85.175 40.8052 86.8 41.3552 88H37.4302C36.9802 87.05 36.9052 85.775 36.8302 83.175C36.8052 81.6 36.0802 81.025 34.4552 81.025H27.6802V88H23.8802ZM34.5802 73.35H27.6802V78.225H34.5802C36.3052 78.225 37.3802 77.35 37.3802 75.775C37.3802 74.2 36.3052 73.35 34.5802 73.35ZM42.4837 88V70.5H57.9837V73.375H46.2837V77.65H54.9837V80.45H46.2837V85.175H57.9837V88H42.4837ZM67.8929 88.35C62.4179 88.35 59.0929 86.05 58.4179 81.9H62.2679C62.7679 84.375 64.5679 85.575 67.7429 85.575C70.9179 85.575 72.4179 84.625 72.4179 83.3C72.4179 81.55 69.9429 81.125 67.0679 80.675C63.1929 80.075 58.6179 79.425 58.6179 75.425C58.6179 72.275 61.6679 70.15 66.6429 70.15C71.9429 70.15 75.4179 72.45 76.0429 76.475H72.3929C71.8929 74.2 69.8429 72.925 66.7429 72.925C63.7929 72.925 62.4429 73.875 62.4429 75.1C62.4429 76.9 65.2679 77.275 68.3679 77.775C72.0929 78.375 76.2179 79.175 76.2179 82.975C76.2179 86.175 73.1429 88.35 67.8929 88.35ZM87.1417 88.375C81.3667 88.375 77.2167 84.975 77.2167 79.25C77.2167 73.525 81.3667 70.125 87.1417 70.125C92.8917 70.125 97.0167 73.525 97.0167 79.25C97.0167 84.975 92.8917 88.375 87.1417 88.375ZM87.1417 85.475C90.6667 85.475 93.1167 83.175 93.1167 79.25C93.1167 75.325 90.6667 73.025 87.1417 73.025C83.5917 73.025 81.1167 75.325 81.1167 79.25C81.1167 83.175 83.5917 85.475 87.1417 85.475ZM98.3431 88V70.5H109.368C113.218 70.5 115.593 72.3 115.593 75.375C115.593 77.375 114.568 78.9 112.743 79.625C114.343 80.1 114.968 81.225 115.043 83.025C115.118 85.175 115.268 86.8 115.818 88H111.893C111.443 87.05 111.368 85.775 111.293 83.175C111.268 81.6 110.543 81.025 108.918 81.025H102.143V88H98.3431ZM109.043 73.35H102.143V78.225H109.043C110.768 78.225 111.843 77.35 111.843 75.775C111.843 74.2 110.768 73.35 109.043 73.35ZM123.455 88V73.375H116.08V70.5H134.655V73.375H127.255V88H123.455Z" fill="white"/>
</svg>
