<svg width="159" height="159" viewBox="0 0 159 159" fill="none" xmlns="http://www.w3.org/2000/svg">
<circle cx="79.5" cy="79.5" r="79.5" fill="#9E7200"/>
<path d="M39.9837 75V60.375H32.6087V57.5H51.1837V60.375H43.7837V75H39.9837ZM52.2981 75V57.5H63.3231C67.1731 57.5 69.5481 59.3 69.5481 62.375C69.5481 64.375 68.5231 65.9 66.6981 66.625C68.2981 67.1 68.9231 68.225 68.9981 70.025C69.0731 72.175 69.2231 73.8 69.7731 75H65.8481C65.3981 74.05 65.3231 72.775 65.2481 70.175C65.2231 68.6 64.4981 68.025 62.8731 68.025H56.0981V75H52.2981ZM62.9981 60.35H56.0981V65.225H62.9981C64.7231 65.225 65.7981 64.35 65.7981 62.775C65.7981 61.2 64.7231 60.35 62.9981 60.35ZM70.0243 75L78.1493 57.5H82.5243L90.6743 75H86.4243L84.6993 71.05H75.7243L73.9993 75H70.0243ZM77.1243 67.875L76.9243 68.35H83.4993L83.2993 67.875L80.2243 60.7L77.1243 67.875ZM91.3362 75V57.5H99.4362C105.336 57.5 109.311 60.75 109.311 66.275C109.311 71.725 105.286 75 99.4112 75H91.3362ZM99.2862 60.4H95.1362V72.15H99.2862C103.111 72.15 105.411 70.125 105.411 66.3C105.411 62.425 103.111 60.4 99.2862 60.4ZM110.673 75V57.5H114.448V75H110.673ZM116.017 67.2V64.6H124.942V67.2H116.017ZM36.1385 100V85.375H28.7635V82.5H47.3385V85.375H39.9385V100H36.1385ZM48.4779 100V82.5H52.2529V100H48.4779ZM63.4723 100.375C57.6973 100.375 53.5473 96.975 53.5473 91.25C53.5473 85.525 57.6973 82.125 63.4723 82.125C69.2223 82.125 73.3473 85.525 73.3473 91.25C73.3473 96.975 69.2223 100.375 63.4723 100.375ZM63.4723 97.475C66.9973 97.475 69.4473 95.175 69.4473 91.25C69.4473 87.325 66.9973 85.025 63.4723 85.025C59.9223 85.025 57.4473 87.325 57.4473 91.25C57.4473 95.175 59.9223 97.475 63.4723 97.475ZM74.6736 100V82.5H79.0486L83.7986 88.9L88.4986 95.3L88.4486 82.5H91.8236V100H87.4486L82.6986 93.625L77.9986 87.275L78.0486 93.625L78.0736 100H74.6736ZM92.5219 100L100.647 82.5H105.022L113.172 100H108.922L107.197 96.05H98.2219L96.4969 100H92.5219ZM99.6219 92.875L99.4219 93.35H105.997L105.797 92.875L102.722 85.7L99.6219 92.875ZM113.834 100V82.5H117.634V97.15H129.134V100H113.834Z" fill="white"/>
</svg>
