<svg width="159" height="159" viewBox="0 0 159 159" fill="none" xmlns="http://www.w3.org/2000/svg">
<circle cx="79.5" cy="79.5" r="79.5" fill="#9E7200"/>
<path d="M41.5519 88.35C36.2769 88.35 32.7769 85.525 32.7769 80.675V70.5H36.5769V80.75C36.5769 83.725 38.6769 85.375 41.6019 85.375C44.5519 85.375 46.6769 83.725 46.6769 80.775V70.5H50.3769V80.7C50.3769 85.55 46.8269 88.35 41.5519 88.35ZM51.9437 88V70.5H62.9687C66.8187 70.5 69.1937 72.3 69.1937 75.375C69.1937 77.375 68.1687 78.9 66.3437 79.625C67.9437 80.1 68.5687 81.225 68.6437 83.025C68.7187 85.175 68.8687 86.8 69.4187 88H65.4937C65.0437 87.05 64.9687 85.775 64.8937 83.175C64.8687 81.6 64.1437 81.025 62.5187 81.025H55.7437V88H51.9437ZM62.6437 73.35H55.7437V78.225H62.6437C64.3687 78.225 65.4437 77.35 65.4437 75.775C65.4437 74.2 64.3687 73.35 62.6437 73.35ZM70.5472 88V70.5H81.4722C85.2472 70.5 87.5222 72.3 87.5222 75.15C87.5222 76.875 86.6222 78.25 84.9722 79.025C86.8972 79.7 87.9972 81.125 87.9972 83.175C87.9972 86.125 85.7222 88 81.8472 88H70.5472ZM81.2222 73.35H74.3222V77.725H81.2222C82.8222 77.725 83.7722 76.975 83.7722 75.525C83.7722 74.125 82.8222 73.35 81.2222 73.35ZM81.5472 80.525H74.3222V85.2H81.5472C83.2472 85.2 84.2472 84.375 84.2472 82.875C84.2472 81.4 83.2472 80.525 81.5472 80.525ZM87.663 88L95.788 70.5H100.163L108.313 88H104.063L102.338 84.05H93.363L91.638 88H87.663ZM94.763 80.875L94.563 81.35H101.138L100.938 80.875L97.863 73.7L94.763 80.875ZM108.975 88V70.5H113.35L118.1 76.9L122.8 83.3L122.75 70.5H126.125V88H121.75L117 81.625L112.3 75.275L112.35 81.625L112.375 88H108.975Z" fill="white"/>
</svg>
