<svg width="159" height="159" viewBox="0 0 159 159" fill="none" xmlns="http://www.w3.org/2000/svg">
<circle cx="79.5" cy="79.5" r="79.5" fill="#EBBA3B"/>
<path d="M41.6143 70.5L33.4643 88H29.0893L20.9643 70.5H25.1893L28.2893 77.525L31.4143 84.55L34.4893 77.525L37.6143 70.5H41.6143ZM42.3012 88V70.5H46.0762V88H42.3012ZM47.7205 88V70.5H52.0955L56.8455 76.9L61.5455 83.3L61.4955 70.5H64.8705V88H60.4955L55.7455 81.625L51.0455 75.275L51.0955 81.625L51.1205 88H47.7205ZM73.4188 88V73.375H66.0438V70.5H84.6188V73.375H77.2188V88H73.4188ZM80.3148 88L88.4398 70.5H92.8148L100.965 88H96.7148L94.9898 84.05H86.0148L84.2898 88H80.3148ZM87.4148 80.875L87.2148 81.35H93.7898L93.5898 80.875L90.5148 73.7L87.4148 80.875ZM115.789 88V85.025C114.314 87.125 111.939 88.325 108.889 88.325C103.489 88.325 99.7387 84.95 99.7387 79.25C99.7387 73.55 103.764 70.125 109.564 70.125C114.714 70.125 118.389 72.75 119.264 77.075H115.339C114.664 74.5 112.339 72.975 109.564 72.975C106.014 72.975 103.639 75.275 103.639 79.25C103.639 83.225 106.014 85.5 109.539 85.5C112.364 85.5 114.589 84 115.389 81.35H109.789V78.6H119.289V88H115.789ZM120.889 88V70.5H136.389V73.375H124.689V77.65H133.389V80.45H124.689V85.175H136.389V88H120.889Z" fill="#232323"/>
</svg>
