<svg width="77" height="114" viewBox="0 0 77 114" fill="none" xmlns="http://www.w3.org/2000/svg">
<g clip-path="url(#clip0_838_819)">
<path d="M11.0497 109.2C10.4897 109.81 9.62973 110.11 8.44973 110.11C7.08973 110.11 5.99973 109.56 5.18973 108.47C4.37973 107.38 3.96973 105.82 3.96973 103.79C3.96973 101.76 4.34973 100.22 5.10973 99.1199C5.86973 98.0199 6.97973 97.4699 8.43973 97.4699C9.59973 97.4699 10.4497 97.7799 10.9797 98.3899C11.5197 98.9999 11.8797 99.8499 12.0697 100.93L15.8497 100.44C15.6797 99.4899 15.4197 98.6199 15.0597 97.8499C14.6997 97.0799 14.2297 96.4199 13.6397 95.8799C13.0497 95.3299 12.3297 94.9199 11.4697 94.6299C10.6097 94.3399 9.59973 94.1899 8.43973 94.1899C7.12973 94.1899 5.94973 94.4099 4.90973 94.8599C3.86973 95.2999 2.97973 95.9399 2.24973 96.7799C1.51973 97.6199 0.959727 98.6199 0.559727 99.7999C0.169727 100.98 -0.0302734 102.31 -0.0302734 103.79C-0.0302734 105.27 0.149727 106.53 0.509727 107.72C0.869727 108.91 1.39973 109.92 2.10973 110.75C2.81973 111.58 3.69973 112.23 4.73973 112.7C5.77973 113.16 6.99973 113.39 8.37973 113.39C9.60973 113.39 10.6797 113.22 11.6097 112.88C12.5397 112.54 13.3197 112.07 13.9597 111.46C14.5997 110.85 15.0997 110.14 15.4697 109.31C15.8397 108.48 16.0597 107.58 16.1497 106.61H12.0597C11.9197 107.74 11.5797 108.6 11.0297 109.21L11.0497 109.2Z" fill="white"/>
<path d="M30.7403 103.14C31.1703 102.34 31.3803 101.35 31.3803 100.17C31.3803 99.5401 31.2803 98.8901 31.0703 98.2401C30.8703 97.5801 30.5003 96.9901 29.9703 96.4501C29.4403 95.9101 28.7103 95.4801 27.7903 95.1401C26.8603 94.8101 25.6803 94.6401 24.2503 94.6401H17.7803V112.92H21.5403V106.06H25.1203L28.1903 112.92H32.3103L28.6003 105.16C29.6103 104.61 30.3203 103.94 30.7503 103.14H30.7403ZM27.3903 101.32C27.3003 101.65 27.1503 101.92 26.9203 102.15C26.6903 102.38 26.3803 102.56 25.9903 102.69C25.6003 102.82 25.1003 102.88 24.5103 102.88H21.5503V97.7801H24.1803C24.8503 97.7801 25.4003 97.8401 25.8303 97.9701C26.2603 98.1001 26.6103 98.2801 26.8503 98.5101C27.1003 98.7401 27.2703 99.0101 27.3803 99.3001C27.4803 99.6001 27.5303 99.9101 27.5303 100.23C27.5303 100.62 27.4903 100.98 27.4003 101.31L27.3903 101.32Z" fill="white"/>
<path d="M33.45 112.92H37.2599V105.5H44.95V102.22H37.2599V97.9199H45.4399V94.6399H33.45V112.92Z" fill="white"/>
<path d="M46.51 97.9399H52V112.92H55.83V97.9399H61.33V94.6399H46.51V97.9399Z" fill="white"/>
<path d="M66.9999 109.65L76.0899 97.4599V94.6399H62.5999V97.9199H71.5499L62.4199 110.13V112.92H76.1199L76.4999 109.65H66.9999Z" fill="white"/>
<path d="M0.70043 62.02C0.70043 62.79 1.32043 63.41 2.08043 63.41C2.48043 63.41 2.84043 63.24 3.09043 62.97L36.4904 81.91C36.3504 82.49 36.5904 83.12 37.1404 83.43C37.8004 83.81 38.6504 83.59 39.0304 82.92C39.2104 82.6 39.2504 82.24 39.1704 81.9L72.4304 63.04C72.8604 63.43 73.5104 63.53 74.0504 63.22C74.7104 62.84 74.9404 61.99 74.5604 61.33C74.1804 60.67 73.3304 60.44 72.6704 60.82C72.6304 60.85 72.5904 60.88 72.5504 60.91L55.8904 51.46C55.7704 51.39 55.6304 51.39 55.5104 51.45L53.1004 50.1L52.8704 50.52L55.0304 51.73L37.8504 61.47L20.6704 51.73L22.8204 50.52L22.5904 50.1L20.4204 51.32V31.83L37.6104 22.08V24.57H38.0904V22.08L55.4004 31.9C55.4804 32.02 55.6104 32.1 55.7504 32.1C55.8204 32.1 55.8904 32.08 55.9604 32.05L72.5604 22.63C72.8104 22.86 73.1404 23 73.5004 23C74.2604 23 74.8804 22.38 74.8804 21.61C74.8804 20.84 74.2604 20.22 73.5004 20.22C73.1904 20.22 72.9104 20.32 72.6804 20.49L39.2104 1.50996C39.2604 0.989955 39.0104 0.459955 38.5304 0.179955C37.8704 -0.200045 37.0204 0.0199555 36.6404 0.689955C36.4904 0.949955 36.4404 1.22996 36.4604 1.50996L3.01043 20.48C2.58043 20.17 1.99043 20.12 1.50043 20.4C0.84043 20.78 0.61043 21.63 0.99043 22.29C1.16043 22.58 1.42043 22.78 1.71043 22.89V60.68C1.12043 60.84 0.69043 61.37 0.69043 62.01L0.70043 62.02ZM38.2504 62.19L55.6804 52.31L72.0504 61.59C71.9704 61.82 71.9604 62.08 72.0104 62.32L38.7404 81.19C38.6704 81.13 38.6004 81.08 38.5204 81.03C38.4304 80.9799 38.3404 80.94 38.2504 80.91V62.19ZM36.7904 2.28996C36.8904 2.40996 37.0004 2.50996 37.1404 2.58996C37.7304 2.92996 38.4604 2.78996 38.8804 2.28996L72.1704 21.17C72.1304 21.31 72.0904 21.45 72.0904 21.6C72.0904 21.7 72.1004 21.79 72.1204 21.89L55.7804 31.16L38.0304 21.1C37.9004 21.03 37.7504 21.03 37.6204 21.1L19.8704 31.16L3.55043 21.89C3.60043 21.65 3.60043 21.4 3.51043 21.16L36.7904 2.28996ZM2.55043 22.93C2.67043 22.9 2.78043 22.86 2.89043 22.8C2.98043 22.75 3.06043 22.69 3.13043 22.62L19.5604 31.94V51.82C19.5604 51.97 19.6404 52.11 19.7704 52.18L37.4104 62.18V80.9C37.2304 80.96 37.0604 81.05 36.9204 81.18L3.45043 62.21C3.45043 62.15 3.47043 62.09 3.47043 62.02C3.47043 61.42 3.09043 60.91 2.56043 60.72V22.93H2.55043Z" fill="white"/>
<path d="M38.0701 27.3999H37.5901V30.2299H38.0701V27.3999Z" fill="white"/>
<path d="M36.4095 42.8901C36.7495 43.3001 37.2595 43.5601 37.8295 43.5601C38.3995 43.5601 38.9095 43.3001 39.2495 42.8901L40.4195 43.5501L45.3895 46.3301L45.6195 45.9101L40.6495 43.1301L39.4995 42.4901C39.6095 42.2501 39.6695 41.9901 39.6695 41.7201C39.6695 40.7801 38.9695 40.0101 38.0595 39.8901V33.0701H37.5795V39.8901C36.6695 40.0101 35.9695 40.7801 35.9695 41.7201C35.9695 42.0001 36.0295 42.2601 36.1395 42.4901L34.9895 43.1401L30.0195 45.9201L30.2495 46.3401L35.2195 43.5501L36.3895 42.8901H36.4095Z" fill="white"/>
<path d="M25.2996 49.1201L27.7796 47.7301L27.5496 47.3101L25.0596 48.7001L25.2996 49.1201Z" fill="white"/>
<path d="M50.3699 49.1201L50.5999 48.7001L48.1099 47.3101L47.8799 47.7301L50.3699 49.1201Z" fill="white"/>
</g>
<defs>
<clipPath id="clip0_838_819">
<rect width="76.5" height="113.39" fill="white"/>
</clipPath>
</defs>
</svg>
