<svg width="35" height="35" viewBox="0 0 35 35" fill="none" xmlns="http://www.w3.org/2000/svg">
<path d="M35 27.642C35 28.0895 34.9171 28.6737 34.7514 29.3945C34.5857 30.1154 34.4117 30.683 34.2294 31.0973C33.8814 31.9259 32.8705 32.8042 31.1967 33.7322C29.639 34.5774 28.0978 35 26.5732 35C26.1257 35 25.6907 34.971 25.2681 34.913C24.8455 34.855 24.3691 34.7514 23.8388 34.6023C23.3085 34.4531 22.9149 34.333 22.658 34.2418C22.4012 34.1507 21.9413 33.9808 21.2784 33.7322C20.6155 33.4837 20.2095 33.3345 20.0604 33.2848C18.4363 32.7048 16.9863 32.017 15.7102 31.2216C13.589 29.9124 11.3974 28.1268 9.1353 25.8647C6.87322 23.6026 5.08759 21.411 3.77841 19.2898C2.98295 18.0137 2.29522 16.5637 1.7152 14.9396C1.66548 14.7905 1.51634 14.3845 1.26776 13.7216C1.01918 13.0587 0.849313 12.5988 0.758168 12.342C0.667022 12.0851 0.546875 11.6915 0.397727 11.1612C0.24858 10.6309 0.145005 10.1545 0.0870028 9.73189C0.0290009 9.3093 0 8.87429 0 8.42685C0 6.90223 0.422585 5.36103 1.26776 3.80327C2.19579 2.1295 3.0741 1.11861 3.9027 0.770597C4.317 0.588305 4.88459 0.414299 5.60547 0.24858C6.32635 0.0828599 6.91051 0 7.35795 0C7.58996 0 7.76397 0.024858 7.87997 0.0745739C8.17827 0.174006 8.61742 0.803741 9.19744 1.96378C9.37973 2.27865 9.62831 2.72609 9.94318 3.30611C10.258 3.88613 10.5481 4.41229 10.8132 4.88459C11.0784 5.35689 11.3352 5.80019 11.5838 6.21449C11.6335 6.28078 11.7785 6.48793 12.0188 6.83594C12.2591 7.18395 12.4373 7.4781 12.5533 7.7184C12.6693 7.95869 12.7273 8.19484 12.7273 8.42685C12.7273 8.75829 12.4911 9.17259 12.0188 9.66974C11.5465 10.1669 11.0328 10.6226 10.4776 11.0369C9.92247 11.4512 9.40874 11.8904 8.93643 12.3544C8.46413 12.8184 8.22798 13.1996 8.22798 13.4979C8.22798 13.647 8.26941 13.8335 8.35227 14.0572C8.43513 14.2809 8.50556 14.4508 8.56357 14.5668C8.62157 14.6828 8.73757 14.8816 8.91158 15.1634C9.08558 15.4451 9.18087 15.6025 9.19744 15.6357C10.4569 17.906 11.8987 19.8532 13.5227 21.4773C15.1468 23.1013 17.094 24.5431 19.3643 25.8026C19.3975 25.8191 19.5549 25.9144 19.8366 26.0884C20.1184 26.2624 20.3172 26.3784 20.4332 26.4364C20.5492 26.4944 20.7191 26.5649 20.9428 26.6477C21.1665 26.7306 21.353 26.772 21.5021 26.772C21.8004 26.772 22.1816 26.5359 22.6456 26.0636C23.1096 25.5913 23.5488 25.0775 23.9631 24.5224C24.3774 23.9672 24.8331 23.4535 25.3303 22.9812C25.8274 22.5089 26.2417 22.2727 26.5732 22.2727C26.8052 22.2727 27.0413 22.3307 27.2816 22.4467C27.5219 22.5627 27.8161 22.7409 28.1641 22.9812C28.5121 23.2215 28.7192 23.3665 28.7855 23.4162C29.1998 23.6648 29.6431 23.9216 30.1154 24.1868C30.5877 24.4519 31.1139 24.742 31.6939 25.0568C32.2739 25.3717 32.7214 25.6203 33.0362 25.8026C34.1963 26.3826 34.826 26.8217 34.9254 27.12C34.9751 27.236 35 27.41 35 27.642Z" fill="#232323"/>
</svg>
